<?xml version="1.0" standalone="no"?>
<!DOCTYPE svg PUBLIC "-//W3C//DTD SVG 20010904//EN"
 "http://www.w3.org/TR/2001/REC-SVG-20010904/DTD/svg10.dtd">
<svg version="1.0" xmlns="http://www.w3.org/2000/svg"
 width="956.000000pt" height="956.000000pt" viewBox="0 0 956.000000 956.000000"
 preserveAspectRatio="xMidYMid meet">
<metadata>
Created by potrace 1.11, written by Peter Selinger 2001-2013
</metadata>
<g transform="translate(0.000000,956.000000) scale(0.100000,-0.100000)"
fill="#000000" stroke="none">
<path d="M4400 8439 c0 -13 -5 -96 -10 -184 -29 -454 -94 -621 -355 -905 -76
-82 -107 -125 -143 -199 l-47 -94 0 -121 c0 -116 1 -124 32 -186 43 -88 81
-130 161 -184 95 -63 162 -87 258 -93 123 -8 224 21 350 102 l59 38 -70 24
c-169 56 -275 197 -275 364 0 99 23 168 120 364 100 202 134 302 157 454 35
241 -24 436 -181 591 -52 50 -56 52 -56 29z"/>
<path d="M4887 8019 c-28 -332 -36 -379 -93 -494 -19 -39 -66 -107 -106 -153
-154 -176 -178 -224 -178 -346 0 -124 57 -213 181 -280 121 -67 265 -48 413
52 l28 20 -55 16 c-77 22 -136 70 -169 135 -48 94 -34 182 56 351 153 289 147
547 -18 709 l-54 53 -5 -63z"/>
<path d="M3000 6166 c0 -361 46 -671 141 -957 60 -180 196 -438 301 -571 l30
-38 -356 0 -357 0 17 -32 c38 -75 143 -216 214 -287 187 -190 427 -297 715
-321 154 -12 1573 -13 1725 0 388 32 689 218 895 550 25 41 45 78 45 82 0 4
-158 8 -351 8 -345 0 -351 0 -338 19 137 192 243 390 309 576 28 82 40 105 45
90 36 -104 100 -186 177 -227 35 -19 59 -23 128 -23 74 0 93 4 145 30 122 61
229 198 285 365 27 80 38 268 21 350 -26 127 -108 239 -203 280 -75 32 -191
26 -267 -15 -64 -35 -129 -91 -162 -139 -13 -20 -26 -36 -29 -36 -3 0 -1 75 3
167 5 93 5 196 2 231 l-7 62 -1564 0 -1564 0 0 -164z m3520 -337 c164 -92 132
-445 -52 -566 -57 -38 -146 -40 -197 -4 -74 53 -111 209 -76 326 36 124 97
209 179 246 54 24 100 24 146 -2z"/>
<path d="M698 3500 c-160 -26 -313 -105 -420 -218 -105 -111 -165 -239 -189
-402 -14 -99 -7 -265 16 -360 57 -234 231 -414 465 -480 99 -28 260 -36 386
-20 97 12 219 43 228 59 4 6 -14 94 -29 137 -2 8 -30 4 -87 -13 -171 -50 -365
-39 -506 29 -185 88 -294 309 -279 563 11 180 59 299 161 401 74 74 152 115
265 140 124 28 301 11 421 -40 13 -5 21 9 38 70 15 50 20 80 13 87 -37 37
-353 68 -483 47z"/>
<path d="M2240 3495 c-175 -38 -336 -165 -423 -333 -74 -143 -90 -216 -90
-412 0 -138 3 -178 21 -243 69 -252 252 -434 483 -483 161 -35 363 -1 501 82
129 79 242 239 290 412 30 106 32 393 4 492 -88 318 -322 501 -636 499 -47 0
-114 -7 -150 -14z m287 -165 c275 -95 405 -519 266 -867 -102 -254 -360 -365
-592 -256 -123 58 -228 211 -266 386 -21 95 -16 279 9 372 83 303 324 454 583
365z"/>
<path d="M3730 2760 l0 -730 95 0 95 0 0 330 0 330 275 0 275 0 0 80 0 80
-275 0 -275 0 0 240 0 240 300 0 300 0 0 80 0 80 -395 0 -395 0 0 -730z"/>
<path d="M5220 2760 l0 -730 95 0 95 0 0 330 0 330 275 0 275 0 0 80 0 80
-275 0 -275 0 0 240 0 240 300 0 300 0 0 80 0 80 -395 0 -395 0 0 -730z"/>
<path d="M6720 2760 l0 -730 410 0 410 0 0 80 0 80 -315 0 -315 0 0 260 0 260
285 0 285 0 0 80 0 80 -285 0 -285 0 0 230 0 230 300 0 300 0 0 80 0 80 -395
0 -395 0 0 -730z"/>
<path d="M8220 2760 l0 -730 410 0 410 0 0 80 0 80 -315 0 -315 0 0 260 0 260
285 0 285 0 0 80 0 80 -285 0 -285 0 0 230 0 230 300 0 300 0 0 80 0 80 -395
0 -395 0 0 -730z"/>
<path d="M923 1471 c-50 -23 -77 -68 -77 -131 0 -105 81 -158 203 -134 l31 7
0 68 0 69 -45 0 c-33 0 -45 -4 -45 -15 0 -10 10 -15 31 -15 29 0 30 -1 27 -42
l-3 -43 -54 0 c-48 1 -57 5 -83 34 -27 30 -30 39 -26 83 4 37 12 57 32 76 23
24 34 27 91 27 43 0 65 4 65 11 0 28 -89 31 -147 5z"/>
<path d="M1663 1483 c-10 -3 -13 -42 -13 -144 0 -132 1 -139 20 -139 18 0 20
7 20 60 0 60 0 60 29 60 39 0 58 -20 66 -70 6 -38 27 -61 42 -47 9 9 -18 105
-33 118 -12 9 -10 16 11 41 14 16 25 36 25 43 0 27 -23 63 -47 74 -24 11 -97
14 -120 4z m111 -39 c37 -36 6 -94 -51 -94 l-33 0 0 55 0 55 34 0 c19 0 42 -7
50 -16z"/>
<path d="M2390 1345 l0 -145 80 0 c64 0 80 3 80 15 0 12 -13 15 -60 15 l-60 0
0 50 0 50 55 0 c42 0 55 3 55 15 0 12 -13 15 -55 15 l-55 0 0 50 0 50 60 0
c47 0 60 3 60 15 0 12 -16 15 -80 15 l-80 0 0 -145z"/>
<path d="M3175 1478 c-3 -7 -25 -73 -49 -145 -40 -120 -43 -133 -26 -133 13 0
23 13 32 43 14 41 15 42 65 45 l51 3 17 -46 c12 -30 24 -45 36 -45 15 0 12 17
-30 143 -40 120 -51 142 -69 145 -12 2 -24 -3 -27 -10z m44 -87 c7 -23 15 -49
18 -57 4 -11 -5 -14 -37 -14 -36 0 -42 3 -37 18 3 9 11 38 18 64 15 54 20 52
38 -11z"/>
<path d="M3810 1475 c0 -11 12 -15 45 -15 l45 0 0 -130 c0 -123 1 -130 20
-130 19 0 20 7 20 130 l0 130 40 0 c29 0 40 4 40 15 0 12 -18 15 -105 15 -87
0 -105 -3 -105 -15z"/>
<path d="M5110 1475 c0 -11 12 -15 45 -15 l45 0 0 -130 c0 -123 1 -130 20
-130 19 0 20 7 20 130 l0 130 40 0 c29 0 40 4 40 15 0 12 -18 15 -105 15 -87
0 -105 -3 -105 -15z"/>
<path d="M5905 1478 c-3 -7 -25 -73 -49 -145 -40 -120 -43 -133 -26 -133 13 0
23 13 32 43 14 41 15 42 65 45 l51 3 17 -46 c12 -30 24 -45 36 -45 15 0 12 17
-30 143 -40 120 -51 142 -69 145 -12 2 -24 -3 -27 -10z m44 -87 c7 -23 15 -49
18 -57 4 -11 -5 -14 -37 -14 -36 0 -42 3 -37 18 3 9 11 38 18 64 15 54 20 52
38 -11z"/>
<path d="M6627 1470 c-52 -41 -43 -96 20 -125 53 -24 73 -44 73 -71 0 -32 -33
-47 -86 -39 -35 5 -44 3 -44 -8 0 -26 83 -37 123 -15 53 28 63 84 21 123 -15
14 -32 25 -39 25 -21 0 -65 41 -65 60 0 26 36 43 76 37 38 -6 57 17 21 27 -41
11 -74 6 -100 -14z"/>
<path d="M7290 1475 c0 -11 12 -15 45 -15 l45 0 0 -130 c0 -123 1 -130 20
-130 19 0 20 7 20 130 l0 130 40 0 c29 0 40 4 40 15 0 12 -18 15 -105 15 -87
0 -105 -3 -105 -15z"/>
<path d="M8040 1345 l0 -145 80 0 c64 0 80 3 80 15 0 12 -13 15 -60 15 l-60 0
0 50 0 50 55 0 c42 0 55 3 55 15 0 12 -13 15 -55 15 l-55 0 0 50 0 50 60 0
c47 0 60 3 60 15 0 12 -16 15 -80 15 l-80 0 0 -145z"/>
</g>
</svg>
